<?xml version="1.0" standalone="no"?><!DOCTYPE svg PUBLIC "-//W3C//DTD SVG 1.1//EN" "http://www.w3.org/Graphics/SVG/1.1/DTD/svg11.dtd"><svg t="1628295053174" class="icon" viewBox="0 0 1024 1024" version="1.1" xmlns="http://www.w3.org/2000/svg" p-id="10411" xmlns:xlink="http://www.w3.org/1999/xlink" width="200" height="200"><defs><style type="text/css">@font-face { font-weight: 400; font-style: normal; font-family: Circular-Loom; src: url("https://cdn.loom.com/assets/fonts/circular/CircularXXWeb-Book-cd7d2bcec649b1243839a15d5eb8f0a3.woff2") format("woff2"); }
@font-face { font-weight: 500; font-style: normal; font-family: Circular-Loom; src: url("https://cdn.loom.com/assets/fonts/circular/CircularXXWeb-Medium-d74eac43c78bd5852478998ce63dceb3.woff2") format("woff2"); }
@font-face { font-weight: 700; font-style: normal; font-family: Circular-Loom; src: url("https://cdn.loom.com/assets/fonts/circular/CircularXXWeb-Bold-83b8ceaf77f49c7cffa44107561909e4.woff2") format("woff2"); }
@font-face { font-weight: 900; font-style: normal; font-family: Circular-Loom; src: url("https://cdn.loom.com/assets/fonts/circular/CircularXXWeb-Black-bf067ecb8aa777ceb6df7d72226febca.woff2") format("woff2"); }
</style></defs><path d="M512 512m-512 0a512 512 0 1 0 1024 0 512 512 0 1 0-1024 0Z" fill="#00C89C" fill-opacity=".16" p-id="10412"></path><path d="M720.7936 493.4912l32.1792 39.1936a25.6 25.6 0 0 1-2.6368 35.2512l-221.5424 199.8848a25.6 25.6 0 0 1-34.8416-0.512L284.928 567.552a25.6 25.6 0 0 1-1.6896-35.2512l33.152-38.3232a25.6 25.6 0 0 1 37.376-1.4592l159.0784 157.3376 170.752-158.8736a25.6 25.6 0 0 1 37.1968 2.5088z" fill="#00C89C" p-id="10413"></path><path d="M460.8 230.4m51.2 0l0 0q51.2 0 51.2 51.2l0 179.2q0 51.2-51.2 51.2l0 0q-51.2 0-51.2-51.2l0-179.2q0-51.2 51.2-51.2Z" fill="#00C89C" p-id="10414"></path></svg>